<svg id="Layer_1" data-name="Layer 1" xmlns="http://www.w3.org/2000/svg" viewBox="0 0 512 512"><defs><style>.cls-1{fill:#cad8dd;}.cls-2{fill:#bdcdd1;}.cls-3{fill:#a1b9bf;}</style></defs><title>jupiter_style_4</title><path class="cls-1" d="M473.6,256a211.51,211.51,0,0,1-1.54,25.6c-12.61,108.1-104.51,192-216.06,192A217.33,217.33,0,0,1,80,384a220.66,220.66,0,0,1-15.36-24.19v-.06A213.33,213.33,0,0,1,52.35,332.8a204.3,204.3,0,0,1-7.87-25.6,218.46,218.46,0,0,1,7.87-128,214.43,214.43,0,0,1,11.58-25.6A229.21,229.21,0,0,1,80,128a220,220,0,0,1,21.89-25.6A216.74,216.74,0,0,1,256,38.4c102.53,0,188.54,70.91,211.52,166.4a200.14,200.14,0,0,1,4.54,25.6A211.5,211.5,0,0,1,473.6,256Z"/><path class="cls-2" d="M374.48,73.52A216.51,216.51,0,0,1,409.6,192c0,120.18-97.42,217.6-217.6,217.6A216.51,216.51,0,0,1,73.52,374.48,217.36,217.36,0,0,0,256,473.6c120.18,0,217.6-97.42,217.6-217.6A217.36,217.36,0,0,0,374.48,73.52Z"/><path class="cls-3" d="M268.8,115.2A12.84,12.84,0,0,1,256,128H80a220,220,0,0,1,21.89-25.6H256A12.84,12.84,0,0,1,268.8,115.2Z"/><path class="cls-3" d="M166.4,166.4a12.84,12.84,0,0,1-12.8,12.8H52.35a214.43,214.43,0,0,1,11.58-25.6H153.6A12.84,12.84,0,0,1,166.4,166.4Z"/><path class="cls-3" d="M230.4,166.4a12.8,12.8,0,0,1-12.8,12.8H192a12.8,12.8,0,0,1-12.8-12.8h0A12.8,12.8,0,0,1,192,153.6h25.6a12.8,12.8,0,0,1,12.8,12.8Z"/><path class="cls-3" d="M472.06,230.4H307.2a12.84,12.84,0,0,1-12.8-12.8,12.89,12.89,0,0,1,12.8-12.8H467.52A200.14,200.14,0,0,1,472.06,230.4Z"/><path class="cls-3" d="M472.06,281.6H345.6a12.84,12.84,0,0,1-12.8-12.8A12.89,12.89,0,0,1,345.6,256h128Z"/><path class="cls-3" d="M115.2,320a12.84,12.84,0,0,1-12.8,12.8h-50a204.3,204.3,0,0,1-7.87-25.6H102.4A12.84,12.84,0,0,1,115.2,320Z"/><path class="cls-3" d="M243.2,320a12.8,12.8,0,0,1-12.8,12.8H140.8A12.8,12.8,0,0,1,128,320h0a12.8,12.8,0,0,1,12.8-12.8h89.6A12.8,12.8,0,0,1,243.2,320Z"/><path class="cls-3" d="M192,371.2A12.84,12.84,0,0,1,179.2,384H80a220.66,220.66,0,0,1-15.36-24.19v-.06a13.37,13.37,0,0,1,5.76-1.34H179.2A12.84,12.84,0,0,1,192,371.2Z"/><circle class="cls-1" cx="473.6" cy="64" r="38.4"/><circle class="cls-1" cx="38.4" cy="448" r="38.4"/></svg>